<?xml version="1.0" encoding="UTF-8"?>
<svg version="1.1" xmlns="http://www.w3.org/2000/svg" width="160" height="160">
<path d="M0 0 C52.8 0 105.6 0 160 0 C160 52.8 160 105.6 160 160 C107.2 160 54.4 160 0 160 C0 107.2 0 54.4 0 0 Z " fill="#FCFDFC" transform="translate(0,0)"/>
<path d="M0 0 C1.75 0.0625 1.75 0.0625 4 1 C6.34052306 4.54422063 8.32083694 7.75523087 9 12 C9.66 11.34 10.32 10.68 11 10 C14.7072617 9.80724032 18.39356013 9.81352722 22.10546875 9.83203125 C26.28895012 8.93826843 26.60314424 8.62740339 29.15234375 5.57421875 C33.09370258 1.25385114 36.96063443 0.63820193 42.66137695 0.11523438 C55.01982225 -0.26825035 62.12939576 0.73805877 71.23516846 9.24829102 C76.87589178 14.81916942 82.05243383 20.81142755 87 27 C85.32519531 27.79467773 85.32519531 27.79467773 83 28 C80.52636719 26.09399414 80.52636719 26.09399414 77.796875 23.28515625 C77.3142218 22.79542831 76.8315686 22.30570038 76.33428955 21.8011322 C74.79408365 20.23291773 73.27214696 18.6482297 71.75 17.0625 C70.70949034 15.99691587 69.66783666 14.93244754 68.625 13.86914062 C66.06992774 11.25891489 63.53096503 8.63363148 61 6 C56.48427696 9.77630152 52.18724026 13.67609428 48.0625 17.875 C47.56943359 18.37257813 47.07636719 18.87015625 46.56835938 19.3828125 C45.37654008 20.58620285 44.18791322 21.79275365 43 23 C44.32120828 25.93230193 45.74638197 27.98664899 48.0390625 30.234375 C48.61914062 30.80800781 49.19921875 31.38164063 49.796875 31.97265625 C50.40015625 32.55917969 51.0034375 33.14570312 51.625 33.75 C52.23601562 34.35199219 52.84703125 34.95398437 53.4765625 35.57421875 C54.97988624 37.05405305 56.48934856 38.52764676 58 40 C56.29785156 40.76733398 56.29785156 40.76733398 54 41 C51.70996094 39.27758789 51.70996094 39.27758789 49.234375 36.72265625 C47.90019531 35.36430664 47.90019531 35.36430664 46.5390625 33.97851562 C45.60909995 33.00677357 44.67941598 32.03476484 43.75 31.0625 C42.80584661 30.09327057 41.86054685 29.12515643 40.9140625 28.15820312 C38.59783834 25.78289161 36.2940286 23.39672271 34 21 C28.93376232 25.23816537 24.19961931 29.67408963 19.5625 34.375 C18.92634766 35.01566406 18.29019531 35.65632813 17.63476562 36.31640625 C16.08749668 37.87530879 14.54263508 39.43651416 13 41 C12.01 40.67 11.02 40.34 10 40 C14.29 35.71 18.58 31.42 23 27 C21.16614077 23.33228155 19.74937171 21.53165004 16.875 18.75 C16.15054688 18.04359375 15.42609375 17.3371875 14.6796875 16.609375 C13.84824219 15.81273437 13.84824219 15.81273437 13 15 C9.94222557 16.35443086 7.95578843 17.84704736 5.6875 20.29296875 C5.08679687 20.92267578 4.48609375 21.55238281 3.8671875 22.20117188 C2.61653557 23.53162482 1.37177496 24.86763903 0.1328125 26.20898438 C-0.46789062 26.83482422 -1.06859375 27.46066406 -1.6875 28.10546875 C-2.49767578 28.97401489 -2.49767578 28.97401489 -3.32421875 29.86010742 C-5 31 -5 31 -7.20703125 30.6809082 C-7.79871094 30.4562085 -8.39039062 30.23150879 -9 30 C-8.67 29.34 -8.34 28.68 -8 28 C-8.65226562 28.04640625 -9.30453125 28.0928125 -9.9765625 28.140625 C-15.92922747 28.38645777 -19.28857222 28.02195055 -24 24 C-25.875 22.25 -25.875 22.25 -27 21 C-25.81617332 17.31698366 -23.57627274 15.54488903 -20.1953125 13.76953125 C-15.83358252 12.24059743 -11.52392537 12.18923627 -7 13 C-4.39845498 14.39884663 -3.0532737 15.78878217 -1 18 C-0.34 18.66 0.32 19.32 1 20 C2.38226016 17.23547967 2.09525387 14.9538637 2.0625 11.875 C2.05347656 10.77929688 2.04445313 9.68359375 2.03515625 8.5546875 C2.02355469 7.71164063 2.01195313 6.86859375 2 6 C1.34 6 0.68 6 0 6 C0.33 9.96 0.66 13.92 1 18 C-3 15 -3 15 -3.75 12.94921875 C-4.20753506 8.80995623 -4.44263113 5.99499136 -2.0625 2.4375 C-1.381875 1.633125 -0.70125 0.82875 0 0 Z " fill="#044AAC" transform="translate(42,26)"/>
<path d="M0 0 C19.14 0 38.28 0 58 0 C58 20.13 58 40.26 58 61 C56.33875779 57.67751558 55.10760138 54.54912417 53.875 51.0625 C49.41494588 39.42984423 42.77429528 29.78942337 34 21 C33.31421875 20.30261719 32.6284375 19.60523437 31.921875 18.88671875 C22.93449663 10.31542272 11.79500181 4.65885771 0 1 C0 0.67 0 0.34 0 0 Z " fill="#010101" transform="translate(102,0)"/>
<path d="M0 0 C0.33 0 0.66 0 1 0 C1 19.8 1 39.6 1 60 C-17.81 60 -36.62 60 -56 60 C-53.7101013 58.47340087 -51.82113616 57.40932154 -49.33984375 56.3359375 C-40.57739537 52.44873118 -33.19866156 48.45056536 -26 42 C-24.4840625 40.88625 -24.4840625 40.88625 -22.9375 39.75 C-11.58083898 30.05684989 -4.03935794 14.13775279 0 0 Z " fill="#010101" transform="translate(159,100)"/>
<path d="M0 0 C18.48 0 36.96 0 56 0 C53.14581362 1.90279092 50.61757564 3.00616337 47.4375 4.25 C24.24160719 13.87323611 10.56841826 30.37797802 1 53 C0.67 53 0.34 53 0 53 C0 35.51 0 18.02 0 0 Z " fill="#010101" transform="translate(0,0)"/>
<path d="M0 0 C2.04024059 3.06036089 3.49430318 6.11203298 5.0625 9.4375 C15.02952205 29.74069307 31.45392618 43.57514031 52.61328125 51.1875 C53.40089844 51.455625 54.18851563 51.72375 55 52 C55 52.33 55 52.66 55 53 C36.85 53 18.7 53 0 53 C0 35.51 0 18.02 0 0 Z " fill="#010101" transform="translate(0,107)"/>
<path d="M0 0 C5.15817256 4.33420473 10.07591574 8.83454842 14.875 13.5625 C15.55046875 14.20896484 16.2259375 14.85542969 16.921875 15.52148438 C17.56382813 16.15505859 18.20578125 16.78863281 18.8671875 17.44140625 C19.73512939 18.28747437 19.73512939 18.28747437 20.62060547 19.15063477 C22.29432695 21.39460649 22.63303667 23.25248725 23 26 C22.21625 26.12375 21.4325 26.2475 20.625 26.375 C17.81234479 27.71854239 17.81234479 27.71854239 17.29296875 30.2890625 C16.97519228 32.08204518 16.69580083 33.882297 16.45703125 35.6875 C16 38 16 38 14 40 C6.69565217 40.46376812 6.69565217 40.46376812 3 38 C3 37.01 3 36.02 3 35 C0.03 34.67 -2.94 34.34 -6 34 C-6 35.65 -6 37.3 -6 39 C-5.34 39.33 -4.68 39.66 -4 40 C-6.64 40 -9.28 40 -12 40 C-12 39.34 -12 38.68 -12 38 C-11.34 38 -10.68 38 -10 38 C-10 34.04 -10 30.08 -10 26 C-10.66 26 -11.32 26 -12 26 C-12 25.01 -12 24.02 -12 23 C-8.535 22.505 -8.535 22.505 -5 22 C-4.83240016 19.8750734 -4.66594799 17.75005624 -4.5 15.625 C-4.4071875 14.44164062 -4.314375 13.25828125 -4.21875 12.0390625 C-4.09804546 10.36213157 -4 8.68126944 -4 7 C-5.98 7.99 -5.98 7.99 -8 9 C-7.04270084 7.87411986 -6.08412105 6.7493285 -5.125 5.625 C-4.59132813 4.99851562 -4.05765625 4.37203125 -3.5078125 3.7265625 C-2.38567993 2.44163349 -1.20628025 1.20628025 0 0 Z " fill="#F6F9FA" transform="translate(75,46)"/>
<path d="M0 0 C3.30272763 1.62883058 5.29646382 3.81509697 7.1875 7 C6.86601884 10.42913235 4.52489744 11.87679079 2 14 C-2.34508568 15.44836189 -6.45891095 15.52342771 -11 15 C-14.55330284 13.12644032 -17.31744136 10.98062071 -20 8 C-18.81617332 4.31698366 -16.57627274 2.54488903 -13.1953125 0.76953125 C-8.82789477 -0.76139632 -4.53053171 -0.79710107 0 0 Z " fill="#64C572" transform="translate(35,39)"/>
<path d="M0 0 C3.68069887 1.53643852 5.98775204 3.78150945 8.75 6.625 C9.54921875 7.44226562 10.3484375 8.25953125 11.171875 9.1015625 C12.07679687 10.04128906 12.07679687 10.04128906 13 11 C11.59155282 14.21524305 9.89655214 16.32183868 7.375 18.75 C6.74335937 19.36359375 6.11171875 19.9771875 5.4609375 20.609375 C4.97882812 21.06828125 4.49671875 21.5271875 4 22 C3.34 21.67 2.68 21.34 2 21 C2 20.34 2 19.68 2 19 C0.02 18.67 -1.96 18.34 -4 18 C-4.44041451 12.62694301 -4.44041451 12.62694301 -4 10 C-1.5 8 -1.5 8 1 7 C-1.475 6.01 -1.475 6.01 -4 5 C-2.68 3.35 -1.36 1.7 0 0 Z " fill="#EEF2F6" transform="translate(53,40)"/>
<path d="M0 0 C2.16874252 0.50603992 3.99967627 0.99983813 6 2 C6.625 4.0625 6.625 4.0625 7 6 C7.78375 5.95875 8.5675 5.9175 9.375 5.875 C12 6 12 6 14 8 C14 8.99 14 9.98 14 11 C12.02 11 10.04 11 8 11 C8.33 11.99 8.66 12.98 9 14 C10.65 13.67 12.3 13.34 14 13 C13.67 13.99 13.34 14.98 13 16 C10.18743719 16.02684312 7.37512759 16.04676188 4.5625 16.0625 C3.76005859 16.07087891 2.95761719 16.07925781 2.13085938 16.08789062 C0.08704779 16.0965143 -1.95683902 16.0522815 -4 16 C-5 15 -5 15 -5.09765625 13.15234375 C-5.06510417 11.1015625 -5.03255208 9.05078125 -5 7 C-5.66 6.67 -6.32 6.34 -7 6 C-6.34 6 -5.68 6 -5 6 C-4.67 5.34 -4.34 4.68 -4 4 C-4 4.66 -4 5.32 -4 6 C-3.01 6 -2.02 6 -1 6 C-1 6.66 -1 7.32 -1 8 C-0.34 8 0.32 8 1 8 C1 7.34 1 6.68 1 6 C1.66 5.67 2.32 5.34 3 5 C2.65213292 3.02463255 2.65213292 3.02463255 2 1 C1.34 0.67 0.68 0.34 0 0 Z " fill="#ACDDB4" transform="translate(100,96)"/>
<path d="M0 0 C1.17539996 0.92652701 2.34010577 1.86663387 3.5 2.8125 C4.1496875 3.33457031 4.799375 3.85664062 5.46875 4.39453125 C7 6 7 6 7 9 C6.70565266 12.33768862 6.34627156 15.66713622 6 19 C2.37 19 -1.26 19 -5 19 C-4.67447917 16.78645833 -4.34895833 14.57291667 -4.0234375 12.359375 C-3.99680605 9.67847541 -4.63407916 8.27305911 -6 6 C-4.02 4.02 -2.04 2.04 0 0 Z " fill="#F6FAFC" transform="translate(102,31)"/>
<path d="M0 0 C1.30798892 1.20775052 2.59632829 2.43692069 3.87109375 3.6796875 C5.0310083 4.80842285 5.0310083 4.80842285 6.21435547 5.95996094 C8.76388178 8.47408409 11.28919967 11.01038687 13.80859375 13.5546875 C14.68322266 14.43382813 15.55785156 15.31296875 16.45898438 16.21875 C18.59866423 18.3701221 20.73595972 20.52380542 22.87109375 22.6796875 C21.19628906 23.47436523 21.19628906 23.47436523 18.87109375 23.6796875 C16.39746094 21.77368164 16.39746094 21.77368164 13.66796875 18.96484375 C13.18531555 18.47511581 12.70266235 17.98538788 12.2053833 17.4808197 C10.6651774 15.91260523 9.14324071 14.3279172 7.62109375 12.7421875 C6.58058409 11.67660337 5.53893041 10.61213504 4.49609375 9.54882812 C1.94102149 6.93860239 -0.59794122 4.31331898 -3.12890625 1.6796875 C-3.60013916 2.08525879 -4.07137207 2.49083008 -4.55688477 2.90869141 C-5.18006592 3.44413574 -5.80324707 3.97958008 -6.4453125 4.53125 C-7.36872437 5.32523193 -7.36872437 5.32523193 -8.31079102 6.13525391 C-10.54485195 8.03302072 -12.82650736 9.86567625 -15.12890625 11.6796875 C-14.96390625 10.9371875 -14.79890625 10.1946875 -14.62890625 9.4296875 C-14.00964929 6.48962172 -14.00964929 6.48962172 -14.12890625 2.6796875 C-14.12890625 2.0196875 -14.12890625 1.3596875 -14.12890625 0.6796875 C-11.79727247 0.00710083 -9.46370235 -0.65878694 -7.12890625 -1.3203125 C-6.45609619 -1.55508301 -5.78328613 -1.78985352 -5.09008789 -2.03173828 C-3.12890625 -2.3203125 -3.12890625 -2.3203125 0 0 Z " fill="#0B4DAB" transform="translate(106.12890625,30.3203125)"/>
<path d="M0 0 C1.93681161 -0.08107583 3.8745934 -0.13922475 5.8125 -0.1875 C6.89144531 -0.22230469 7.97039062 -0.25710937 9.08203125 -0.29296875 C12 0 12 0 13.89453125 1.3515625 C15 3 15 3 14.875 5.5625 C14 8 14 8 11 10 C8.3125 10.125 8.3125 10.125 6 10 C6 11.65 6 13.3 6 15 C6.66 15.33 7.32 15.66 8 16 C5.36 16 2.72 16 0 16 C0 15.34 0 14.68 0 14 C0.66 14 1.32 14 2 14 C2 10.04 2 6.08 2 2 C1.34 2 0.68 2 0 2 C0 1.34 0 0.68 0 0 Z " fill="#0237A4" transform="translate(63,70)"/>
<path d="M0 0 C1.75 0.0625 1.75 0.0625 4 1 C6.51190879 4.55853745 7.82733047 6.89923177 8.5 11.1875 C7.88056736 14.67180858 6.78038546 15.87382289 4 18 C3.34 18 2.68 18 2 18 C2 14.04 2 10.08 2 6 C1.34 6 0.68 6 0 6 C0.33 9.96 0.66 13.92 1 18 C-3 15 -3 15 -3.75 12.94921875 C-4.20753506 8.80995623 -4.44263113 5.99499136 -2.0625 2.4375 C-1.381875 1.633125 -0.70125 0.82875 0 0 Z " fill="#3BB44D" transform="translate(42,26)"/>
<path d="M0 0 C0.99 0.66 1.98 1.32 3 2 C3 3.32 3 4.64 3 6 C1.68 5.67 0.36 5.34 -1 5 C-1 4.34 -1 3.68 -1 3 C-2.32 2.67 -3.64 2.34 -5 2 C-3.86516076 5.40451771 -3.44722063 5.6005564 -0.4375 7.1875 C0.696875 7.785625 1.83125 8.38375 3 9 C3.125 11.375 3.125 11.375 3 14 C1 16 1 16 -0.875 16.265625 C-1.57625 16.26046875 -2.2775 16.2553125 -3 16.25 C-4.051875 16.25773437 -4.051875 16.25773437 -5.125 16.265625 C-7 16 -7 16 -9 14 C-8.625 11.875 -8.625 11.875 -8 10 C-7.01 10.33 -6.02 10.66 -5 11 C-5 11.99 -5 12.98 -5 14 C-4.01 14 -3.02 14 -2 14 C-2 13.01 -2 12.02 -2 11 C-5.465 9.02 -5.465 9.02 -9 7 C-8.625 4.0625 -8.625 4.0625 -8 1 C-5.22899606 -0.38550197 -3.0665294 -0.1877467 0 0 Z " fill="#0C49AB" transform="translate(88,70)"/>
<path d="M0 0 C1.98 0 3.96 0 6 0 C6.33 0.99 6.66 1.98 7 3 C12.61 3.66 18.22 4.32 24 5 C21 9 21 9 18 10 C12.94364048 10.53087424 9.11836213 10.58968185 4.5625 8.1875 C0.70526316 4.89473684 0.70526316 4.89473684 -1 3 C-0.67 2.01 -0.34 1.02 0 0 Z " fill="#35B348" transform="translate(16,44)"/>
<path d="M0 0 C2.5 -0.3125 2.5 -0.3125 5 0 C8.00617269 3.00617269 7.59585316 5.82381598 8 10 C4.37 10 0.74 10 -3 10 C-2.25 3.375 -2.25 3.375 0 0 Z " fill="#E0A09D" transform="translate(73,57)"/>
<path d="M0 0 C2.16874252 0.50603992 3.99967627 0.99983813 6 2 C6.625 4.0625 6.625 4.0625 7 6 C7.78375 5.95875 8.5675 5.9175 9.375 5.875 C12 6 12 6 14 8 C14 8.99 14 9.98 14 11 C12.02 11 10.04 11 8 11 C8.33 11.99 8.66 12.98 9 14 C10.65 13.67 12.3 13.34 14 13 C13.67 13.99 13.34 14.98 13 16 C6.84765625 16.09765625 6.84765625 16.09765625 5 16 C3.37549999 14.37549999 3.68341518 12.42451013 3.5 10.1875 C3.13242411 5.52084188 3.13242411 5.52084188 2 1 C1.34 0.67 0.68 0.34 0 0 Z " fill="#E6F4E8" transform="translate(100,96)"/>
<path d="M0 0 C6.15234375 -0.09765625 6.15234375 -0.09765625 8 0 C9 1 9 1 9.1875 3.9375 C9 7 9 7 7 9 C4.375 9.125 4.375 9.125 2 9 C2.33 10.32 2.66 11.64 3 13 C1.68 12.67 0.36 12.34 -1 12 C-0.67 8.04 -0.34 4.08 0 0 Z " fill="#67C277" transform="translate(34,99)"/>
<path d="M0 0 C2.31 0 4.62 0 7 0 C9 2 9 2 9.25 5 C9 8 9 8 7 10 C5.68 10 4.36 10 3 10 C3.33 11.65 3.66 13.3 4 15 C2.68 15 1.36 15 0 15 C0 10.05 0 5.1 0 0 Z " fill="#68C379" transform="translate(64,102)"/>
<path d="M0 0 C2.625 0.375 2.625 0.375 5 1 C5.33 2.32 5.66 3.64 6 5 C4.02 5 2.04 5 0 5 C0.33 5.99 0.66 6.98 1 8 C1.99 8.33 2.98 8.66 4 9 C4 8.34 4 7.68 4 7 C5.32 7.33 6.64 7.66 8 8 C8 5.36 8 2.72 8 0 C9.98 0 11.96 0 14 0 C14 0.99 14 1.98 14 3 C12.68 2.67 11.36 2.34 10 2 C10.33 4.64 10.66 7.28 11 10 C9.20866022 10.05391993 7.41686101 10.09275571 5.625 10.125 C4.62726563 10.14820312 3.62953125 10.17140625 2.6015625 10.1953125 C0 10 0 10 -2 8 C-2.25 5 -2.25 5 -2 2 C-1.34 1.34 -0.68 0.68 0 0 Z " fill="#7CC989" transform="translate(77,102)"/>
<path d="M0 0 C2.4375 0.875 2.4375 0.875 3.75 2.625 C4.4375 4.875 4.4375 4.875 4.4375 9.875 C1.1375 9.875 -2.1625 9.875 -5.5625 9.875 C-5.85546875 3.8203125 -5.85546875 3.8203125 -5.5625 1.875 C-2.5625 -0.125 -2.5625 -0.125 0 0 Z " fill="#E9CD7A" transform="translate(54.5625,48.125)"/>
<path d="M0 0 C1.53202706 0.25195908 3.05257128 0.57596777 4.5625 0.9375 C5.38878906 1.13214844 6.21507812 1.32679687 7.06640625 1.52734375 C8.02353516 1.76130859 8.02353516 1.76130859 9 2 C9.33 3.65 9.66 5.3 10 7 C9.01 7.33 8.02 7.66 7 8 C7 8.66 7 9.32 7 10 C6.34 10 5.68 10 5 10 C4.67 9.01 4.34 8.02 4 7 C3.071875 7.309375 3.071875 7.309375 2.125 7.625 C1.42375 7.74875 0.7225 7.8725 0 8 C-0.66 7.34 -1.32 6.68 -2 6 C-1.44444444 1.44444444 -1.44444444 1.44444444 0 0 Z " fill="#EC9994" transform="translate(36,125)"/>
<path d="M0 0 C2.5 0.25 2.5 0.25 4.5 2.25 C4.76991906 4.93839385 4.58737357 7.54141936 4.5 10.25 C1.2 10.25 -2.1 10.25 -5.5 10.25 C-4.55211726 0.45521173 -4.55211726 0.45521173 0 0 Z " fill="#EAD081" transform="translate(102.5,39.75)"/>
<path d="M0 0 C0.33 1.32 0.66 2.64 1 4 C-0.29174805 5.9387207 -0.29174805 5.9387207 -2.26171875 7.92578125 C-2.96876953 8.63927734 -3.67582031 9.35277344 -4.40429688 10.08789062 C-5.53448242 11.18907227 -5.53448242 11.18907227 -6.6875 12.3125 C-7.42162109 13.06595703 -8.15574219 13.81941406 -8.91210938 14.59570312 C-9.98235352 15.6562793 -9.98235352 15.6562793 -11.07421875 16.73828125 C-11.72994873 17.38837158 -12.38567871 18.03846191 -13.0612793 18.70825195 C-14.02094604 19.34766724 -14.02094604 19.34766724 -15 20 C-16.32 19.67 -17.64 19.34 -19 19 C-12.73 12.73 -6.46 6.46 0 0 Z " fill="#0D50A7" transform="translate(52,37)"/>
<path d="M0 0 C0.66 0 1.32 0 2 0 C2.33 0.99 2.66 1.98 3 3 C5.31 2.34 7.62 1.68 10 1 C10.33 1.66 10.66 2.32 11 3 C10.67 3.99 10.34 4.98 10 6 C10.66 5.67 11.32 5.34 12 5 C12.33 4.01 12.66 3.02 13 2 C13.66 2 14.32 2 15 2 C15 3.98 15 5.96 15 8 C13.02 8 11.04 8 9 8 C9 6.35 9 4.7 9 3 C8.34 3 7.68 3 7 3 C6.67 4.65 6.34 6.3 6 8 C4.02 8 2.04 8 0 8 C0 5.36 0 2.72 0 0 Z " fill="#E56863" transform="translate(66,125)"/>
<path d="M0 0 C4.76761753 -0.47676175 8.63232515 -0.83824 12.5 2.3125 C15 5 15 5 16 8 C11.05 8 6.1 8 1 8 C1 7.67 1 7.34 1 7 C2.98 6.67 4.96 6.34 7 6 C4.525 5.01 4.525 5.01 2 4 C2.66 3.34 3.32 2.68 4 2 C2.68 1.34 1.36 0.68 0 0 Z " fill="#30B244" transform="translate(26,39)"/>
<path d="M0 0 C1.16781006 0.00523682 2.33562012 0.01047363 3.53881836 0.01586914 C4.79887695 0.0190918 6.05893555 0.02231445 7.35717773 0.02563477 C8.6976732 0.03399136 10.03816799 0.04245632 11.37866211 0.05102539 C12.72306153 0.05603879 14.06746271 0.06060197 15.41186523 0.06469727 C18.71334151 0.07653051 22.01473014 0.09301568 25.31616211 0.11352539 C24.67678711 0.23727539 24.03741211 0.36102539 23.37866211 0.48852539 C22.69803711 0.69477539 22.01741211 0.90102539 21.31616211 1.11352539 C20.98616211 1.77352539 20.65616211 2.43352539 20.31616211 3.11352539 C-0.68383789 3.11352539 -0.68383789 3.11352539 -3.68383789 1.11352539 C-2.68383789 0.11352539 -2.68383789 0.11352539 0 0 Z " fill="#013CA5" transform="translate(77.683837890625,27.886474609375)"/>
<path d="M0 0 C1.1446875 0.3403125 1.1446875 0.3403125 2.3125 0.6875 C3.64091008 6.12190487 3.64091008 6.12190487 2.1875 8.625 C0.3125 9.6875 0.3125 9.6875 -2.375 9.375 C-3.138125 9.148125 -3.90125 8.92125 -4.6875 8.6875 C-6.01591008 3.25309513 -6.01591008 3.25309513 -4.5625 0.75 C-2.6875 -0.3125 -2.6875 -0.3125 0 0 Z " fill="#B1DFB8" transform="translate(59.6875,102.3125)"/>
<path d="M0 0 C5.66666667 5.66666667 11.33333333 11.33333333 17 17 C15.21801758 17.67651367 15.21801758 17.67651367 13 18 C11.24487305 16.8918457 11.24487305 16.8918457 9.51171875 15.17578125 C8.88845703 14.55896484 8.26519531 13.94214844 7.62304688 13.30664062 C6.98431641 12.64857422 6.34558594 11.99050781 5.6875 11.3125 C5.02943359 10.67376953 4.37136719 10.03503906 3.69335938 9.37695312 C3.07654297 8.75369141 2.45972656 8.13042969 1.82421875 7.48828125 C1.25791748 6.91634033 0.69161621 6.34439941 0.1081543 5.75512695 C-1 4 -1 4 -0.67651367 1.78198242 C-0.3416394 0.89990112 -0.3416394 0.89990112 0 0 Z " fill="#164FAB" transform="translate(83,49)"/>
<path d="M0 0 C6.41069287 5.27101414 12.18590512 11.09128152 18 17 C16.21582031 17.67651367 16.21582031 17.67651367 14 18 C12.26074219 16.8918457 12.26074219 16.8918457 10.546875 15.17578125 C9.61875 14.25055664 9.61875 14.25055664 8.671875 13.30664062 C8.03765625 12.64857422 7.4034375 11.99050781 6.75 11.3125 C6.1003125 10.67376953 5.450625 10.03503906 4.78125 9.37695312 C0 4.5203683 0 4.5203683 0 0 Z " fill="#124FAC" transform="translate(111,36)"/>
<path d="M0 0 C0.66 0 1.32 0 2 0 C2 0.99 2 1.98 2 3 C2.66 3 3.32 3 4 3 C4 2.01 4 1.02 4 0 C5.98 0.66 7.96 1.32 10 2 C10.38218767 3.65614657 10.71395102 5.32457024 11 7 C10 8 10 8 6.9375 8.0625 C5.968125 8.041875 4.99875 8.02125 4 8 C4 6.68 4 5.36 4 4 C3.34 4 2.68 4 2 4 C2 5.32 2 6.64 2 8 C1.34 8 0.68 8 0 8 C0 5.36 0 2.72 0 0 Z " fill="#EB9089" transform="translate(91,125)"/>
<path d="M0 0 C0.99 0.33 1.98 0.66 3 1 C3 2.65 3 4.3 3 6 C6.465 7.98 6.465 7.98 10 10 C9.67 11.32 9.34 12.64 9 14 C7.68 13.67 6.36 13.34 5 13 C5 12.01 5 11.02 5 10 C4.34 10 3.68 10 3 10 C2.01 11.485 2.01 11.485 1 13 C1 12.01 1 11.02 1 10 C-0.32 9.67 -1.64 9.34 -3 9 C-2.505 8.62875 -2.01 8.2575 -1.5 7.875 C0.59755514 5.25305607 0.21743835 3.26157528 0 0 Z " fill="#E9F2F8" transform="translate(77,71)"/>
<path d="M0 0 C1.32 0.99 2.64 1.98 4 3 C3.625 5.4375 3.625 5.4375 3 8 C0.13822943 9.43088528 -1.93375773 8.59991697 -5 8 C-5 6.02 -5 4.04 -5 2 C-3.35 2 -1.7 2 0 2 C0 1.34 0 0.68 0 0 Z " fill="#1450AF" transform="translate(74,70)"/>
<path d="M0 0 C1.32 0 2.64 0 4 0 C4 3.3 4 6.6 4 10 C3.34 10 2.68 10 2 10 C1.67 9.01 1.34 8.02 1 7 C0.01 7.99 -0.98 8.98 -2 10 C-2.125 6.625 -2.125 6.625 -2 3 C-1.34 2.34 -0.68 1.68 0 1 C0 0.67 0 0.34 0 0 Z " fill="#F5D1CE" transform="translate(83,124)"/>
<path d="M0 0 C0.66 0.99 1.32 1.98 2 3 C-2.29 7.29 -6.58 11.58 -11 16 C-11.99 15.67 -12.98 15.34 -14 15 C-13.07316406 14.08476563 -12.14632812 13.16953125 -11.19140625 12.2265625 C-9.98163961 11.0261739 -8.77201135 9.82564583 -7.5625 8.625 C-6.95083984 8.02171875 -6.33917969 7.4184375 -5.70898438 6.796875 C-5.12568359 6.21679688 -4.54238281 5.63671875 -3.94140625 5.0390625 C-3.40201416 4.50490723 -2.86262207 3.97075195 -2.30688477 3.42041016 C-0.89153023 2.01347612 -0.89153023 2.01347612 0 0 Z " fill="#0638A3" transform="translate(66,51)"/>
<path d="M0 0 C0.33 1.32 0.66 2.64 1 4 C-0.98 4 -2.96 4 -5 4 C-4.67 4.99 -4.34 5.98 -4 7 C-2.35 6.67 -0.7 6.34 1 6 C0.67 6.99 0.34 7.98 0 9 C-1.66611905 9.042721 -3.33382885 9.04063832 -5 9 C-6 8 -6 8 -6.09765625 6.15234375 C-6.06510417 4.1015625 -6.03255208 2.05078125 -6 0 C-3.50907189 -1.24546405 -2.58919267 -0.7767578 0 0 Z " fill="#87CE95" transform="translate(113,103)"/>
<path d="M0 0 C0.66 0 1.32 0 2 0 C2 1.98 2 3.96 2 6 C3.98 6 5.96 6 8 6 C7.67 6.66 7.34 7.32 7 8 C5.35 8 3.7 8 2 8 C2 8.99 2 9.98 2 11 C1.01 11 0.02 11 -1 11 C-1.0270043 9.54176788 -1.04639787 8.08339325 -1.0625 6.625 C-1.07410156 5.81289062 -1.08570312 5.00078125 -1.09765625 4.1640625 C-1 2 -1 2 0 0 Z " fill="#064AA9" transform="translate(67,72)"/>
<path d="M0 0 C1.65 0 3.3 0 5 0 C5.33 0.99 5.66 1.98 6 3 C6.33 2.01 6.66 1.02 7 0 C7.66 0 8.32 0 9 0 C9 1.98 9 3.96 9 6 C2.84765625 6.09765625 2.84765625 6.09765625 1 6 C0 5 0 5 -0.0625 2.4375 C-0.041875 1.633125 -0.02125 0.82875 0 0 Z " fill="#E98F8A" transform="translate(103,127)"/>
<path d="M0 0 C0.66 0 1.32 0 2 0 C2.33 4.29 2.66 8.58 3 13 C2.01 13.66 1.02 14.32 0 15 C-1.65 12.69 -3.3 10.38 -5 8 C-4.34 7.34 -3.68 6.68 -3 6 C-2.01 7.65 -1.02 9.3 0 11 C0 7.37 0 3.74 0 0 Z " fill="#9EDCA7" transform="translate(42,32)"/>
<path d="M0 0 C0.66 0 1.32 0 2 0 C2.33 0.99 2.66 1.98 3 3 C3.99 3 4.98 3 6 3 C6 4.65 6 6.3 6 8 C4.02 8 2.04 8 0 8 C0 5.36 0 2.72 0 0 Z " fill="#EC9493" transform="translate(66,125)"/>
<path d="M0 0 C2.64 0 5.28 0 8 0 C8 1.65 8 3.3 8 5 C7.34 4.01 6.68 3.02 6 2 C5.01 3.485 5.01 3.485 4 5 C3.67 4.67 3.34 4.34 3 4 C3 4.66 3 5.32 3 6 C1.68 5.67 0.36 5.34 -1 5 C-0.67 3.35 -0.34 1.7 0 0 Z " fill="#E77A71" transform="translate(48,127)"/>
<path d="M0 0 C1.66611905 -0.042721 3.33382885 -0.04063832 5 0 C6 1 6 1 6.0625 3.5625 C6.041875 4.366875 6.02125 5.17125 6 6 C4.02 6 2.04 6 0 6 C0 4.02 0 2.04 0 0 Z " fill="#F8FCF7" transform="translate(36,100)"/>
<path d="M0 0 C0.99 0.33 1.98 0.66 3 1 C3 1.99 3 2.98 3 4 C4.65 4.33 6.3 4.66 8 5 C8.33 4.01 8.66 3.02 9 2 C9.66 1.34 10.32 0.68 11 0 C10.125 4.875 10.125 4.875 9 6 C3.26388889 6.27314815 3.26388889 6.27314815 1 6 C0.34 5.34 -0.32 4.68 -1 4 C-0.625 1.875 -0.625 1.875 0 0 Z " fill="#0A3DA6" transform="translate(80,80)"/>
<path d="M0 0 C2.125 0.9375 2.125 0.9375 4 2 C3.44687265 6.02992782 2.8441938 10.02022924 2 14 C1.896875 13.360625 1.79375 12.72125 1.6875 12.0625 C1.460625 11.381875 1.23375 10.70125 1 10 C0.01 9.67 -0.98 9.34 -2 9 C-1.01 9 -0.02 9 1 9 C0.01 6.36 -0.98 3.72 -2 1 C-1.34 0.67 -0.68 0.34 0 0 Z " fill="#F9F8F0" transform="translate(106,36)"/>
<path d="M0 0 C7.48291572 6.15034169 7.48291572 6.15034169 10 10 C6.91082652 9.6567585 5.22894021 9.17806461 2.75 7.25 C0.82193539 4.77105979 0.3432415 3.08917348 0 0 Z " fill="#295AAF" transform="translate(90,57)"/>
<path d="M0 0 C2.475 0.99 2.475 0.99 5 2 C4.67 3.65 4.34 5.3 4 7 C2.02 7 0.04 7 -2 7 C-1.34 6.67 -0.68 6.34 0 6 C0 4.02 0 2.04 0 0 Z " fill="#EC9B97" transform="translate(97,126)"/>
<path d="M0 0 C2.475 0.495 2.475 0.495 5 1 C4.67 2.98 4.34 4.96 4 7 C2.68 6.67 1.36 6.34 0 6 C0 4.02 0 2.04 0 0 Z " fill="#F4FBF4" transform="translate(67,104)"/>
<path d="M0 0 C2.475 0.495 2.475 0.495 5 1 C4.67 2.32 4.34 3.64 4 5 C3.34 5 2.68 5 2 5 C2 5.99 2 6.98 2 8 C1.34 8 0.68 8 0 8 C0 5.36 0 2.72 0 0 Z " fill="#EA8F8A" transform="translate(60,125)"/>
<path d="M0 0 C0.33 0 0.66 0 1 0 C1 2.31 1 4.62 1 7 C2.65 7 4.3 7 6 7 C4.68 7.33 3.36 7.66 2 8 C2.33 9.65 2.66 11.3 3 13 C1.68 13 0.36 13 -1 13 C-0.67 8.71 -0.34 4.42 0 0 Z " fill="#8CD194" transform="translate(65,104)"/>
<path d="M0 0 C0.99 0.495 0.99 0.495 2 1 C1.67 1.66 1.34 2.32 1 3 C0.67 2.01 0.34 1.02 0 0 Z M-2 2 C-1.01 2.495 -1.01 2.495 0 3 C-0.020625 3.886875 -0.04125 4.77375 -0.0625 5.6875 C-0.00713781 8.62169631 0.3305734 11.15493696 1 14 C0.01 14.33 -0.98 14.66 -2 15 C-2 10.71 -2 6.42 -2 2 Z " fill="#30B247" transform="translate(46,29)"/>
<path d="M0 0 C1.14926266 0.95421808 2.29430541 1.91352045 3.4375 2.875 C4.07558594 3.40867188 4.71367188 3.94234375 5.37109375 4.4921875 C7 6 7 6 8 8 C5.2980567 7.63487253 3.41609148 7.30130763 1.1875 5.6875 C0 4 0 4 0 0 Z " fill="#275AAF" transform="translate(121,46)"/>
<path d="M0 0 C1.125 3.75 1.125 3.75 0 6 C0.99 6.33 1.98 6.66 3 7 C2.01 7.33 1.02 7.66 0 8 C-0.66 7.34 -1.32 6.68 -2 6 C-1.67 5.34 -1.34 4.68 -1 4 C-2.32 4.33 -3.64 4.66 -5 5 C-5 4.01 -5 3.02 -5 2 C-2 0 -2 0 0 0 Z " fill="#46B955" transform="translate(23,40)"/>
<path d="M0 0 C1.98 0.99 3.96 1.98 6 3 C5.67 4.32 5.34 5.64 5 7 C3.68 6.67 2.36 6.34 1 6 C0.67 4.02 0.34 2.04 0 0 Z " fill="#DBE7F2" transform="translate(81,78)"/>
<path d="M0 0 C0.99 0 1.98 0 3 0 C3.3125 2.3125 3.3125 2.3125 3 5 C0.5 6.8125 0.5 6.8125 -2 8 C-1.125 1.125 -1.125 1.125 0 0 Z " fill="#F5E0DD" transform="translate(54,128)"/>
<path d="M0 0 C1.32 0.33 2.64 0.66 4 1 C3.67 2.65 3.34 4.3 3 6 C2.01 6 1.02 6 0 6 C0 4.02 0 2.04 0 0 Z " fill="#E9F2F9" transform="translate(69,72)"/>
<path d="M0 0 C1.65 0 3.3 0 5 0 C5 0.99 5 1.98 5 3 C5.66 3.66 6.32 4.32 7 5 C6.01 5.495 6.01 5.495 5 6 C2.375 4.75 2.375 4.75 0 3 C0 2.01 0 1.02 0 0 Z " fill="#DBE8F3" transform="translate(83,72)"/>
<path d="M0 0 C0.33 0.99 0.66 1.98 1 3 C-1.16687491 5.27521866 -3.45620509 7.15794162 -6 9 C-6.66 8.67 -7.32 8.34 -8 8 C-5.36 5.36 -2.72 2.72 0 0 Z " fill="#D6E2EF" transform="translate(75,46)"/>
<path d="M0 0 C2.475 0.99 2.475 0.99 5 2 C5 4 5 6 5 8 C4.01 8 3.02 8 2 8 C2 6.35 2 4.7 2 3 C1.34 3 0.68 3 0 3 C0 2.01 0 1.02 0 0 Z " fill="#E78782" transform="translate(118,125)"/>
<path d="M0 0 C0.99 0 1.98 0 3 0 C3 1.98 3 3.96 3 6 C1.68 5.67 0.36 5.34 -1 5 C-0.67 3.35 -0.34 1.7 0 0 Z " fill="#E8837F" transform="translate(114,127)"/>
<path d="M0 0 C0.66 0.33 1.32 0.66 2 1 C1.67 3.64 1.34 6.28 1 9 C-0.65 9.33 -2.3 9.66 -4 10 C-4 9.01 -4 8.02 -4 7 C-2.68 7.33 -1.36 7.66 0 8 C0 5.36 0 2.72 0 0 Z " fill="#BCE6C3" transform="translate(85,102)"/>
<path d="M0 0 C1.98 0 3.96 0 6 0 C5.34 1.32 4.68 2.64 4 4 C2.68 3.67 1.36 3.34 0 3 C0 2.01 0 1.02 0 0 Z " fill="#E2F5E2" transform="translate(108,107)"/>
<path d="M0 0 C2.125 0.9375 2.125 0.9375 4 2 C4 3.32 4 4.64 4 6 C2.68 5.67 1.36 5.34 0 5 C0 4.34 0 3.68 0 3 C-0.66 2.34 -1.32 1.68 -2 1 C-1.34 0.67 -0.68 0.34 0 0 Z " fill="#164EAC" transform="translate(87,70)"/>
<path d="M0 0 C2 1.0625 2 1.0625 4 3 C4.25 6.6875 4.25 6.6875 4 10 C3.67 10 3.34 10 3 10 C3 8.35 3 6.7 3 5 C1.68 5.33 0.36 5.66 -1 6 C-0.67 4.02 -0.34 2.04 0 0 Z " fill="#C4E6C5" transform="translate(43,101)"/>
<path d="M0 0 C0.66 0 1.32 0 2 0 C0.60667426 3.36720387 -0.9789286 4.9859524 -4 7 C-4 5.68 -4 4.36 -4 3 C-3.01 3 -2.02 3 -1 3 C-0.67 2.01 -0.34 1.02 0 0 Z " fill="#DEE6F2" transform="translate(60,55)"/>
<path d="M0 0 C1.98 0 3.96 0 6 0 C5.01 0.495 5.01 0.495 4 1 C4 1.99 4 2.98 4 4 C2.68 3.67 1.36 3.34 0 3 C0 2.01 0 1.02 0 0 Z " fill="#E2F4E3" transform="translate(77,107)"/>
<path d="M0 0 C0 0.66 0 1.32 0 2 C0.66 2.33 1.32 2.66 2 3 C-0.64 3 -3.28 3 -6 3 C-6 2.34 -6 1.68 -6 1 C-3 0 -3 0 0 0 Z " fill="#0C3CA6" transform="translate(69,83)"/>
<path d="M0 0 C1.98 0.99 1.98 0.99 4 2 C4 2.99 4 3.98 4 5 C2.68 5 1.36 5 0 5 C0 3.35 0 1.7 0 0 Z " fill="#E1C05D" transform="translate(103,40)"/>
<path d="M0 0 C0.66 0 1.32 0 2 0 C2 1.65 2 3.3 2 5 C0.68 5 -0.64 5 -2 5 C-1.125 1.125 -1.125 1.125 0 0 Z " fill="#E3C05B" transform="translate(100,40)"/>
</svg>
